{"title":"Eraserhead - La Mente Che Cancella (1977) - 720p - x264 - ENG su","uid":9105983,"size":3517837344,"categoryP":"video","categoryS":"hd___movies","magnet":"?xt=urn:btih:e5875e7a5c7e433754c0ec641bb713495ddcc83d&amp;dn=Eraserhead+-+La+Mente+Che+Cancella+%281977%29+-+720p+-+x264+-+ENG+su&amp;tr=udp%3A%2F%2Ftracker.openbittorrent.com%3A80&amp;tr=udp%3A%2F%2Fopen.demonii.com%3A1337&amp;tr=udp%3A%2F%2Ftracker.coppersurfer.tk%3A6969&amp;tr=udp%3A%2F%2Fexodus.desync.com%3A6969","seeders":5,"leechers":1,"uploader":"OrgazmoITA","files":1,"time":1382874181,"description":"General\nUnique ID: 183698496169059487033781023427898052196 (0x8A330B1F9C50A2587D93A7C7C6630E64)\nComplete name: Eraserhead.La.Mente.Che.Cancella.720p.x264.ENG.sub.ITA.Multisub.Orgazmo.mkv\nFormat: Matroska\nFormat version: Version 4 / Version 2\nFile size: 3.28 GiB\n\nDuration: 1h 28mn\nOverall bit rate: 5 276 Kbps\nEncoded date: UTC 2013-10-12 10:25:31\nWriting application: mkvmerge v6.2.0 ('Promised Land') built on Apr 28 2013 18:50:30\nWriting library: libebml v1.3.0 + libmatroska v1.4.0\n\nVideo\nID: 1\nFormat: AVC\nFormat/Info: Advanced Video Codec\nFormat profile: &lt;a class=&quot;__cf_email__&quot; href=&quot;/cdn-cgi/l/email-protection&quot; data-cfemail=&quot;4008292728000c746e71&quot;&gt;[email&amp;#160;protected]&lt;/a&gt;&lt;script cf-hash='f9e31' type=&quot;text/javascript&quot;&gt;\n/* &lt;![CDATA[ */!function(){try{var t=&quot;currentScript&quot;in document?document.currentScript:function(){for(var t=document.getElementsByTagName(&quot;script&quot;),e=t.length;e--;)if(t[e].getAttribute(&quot;cf-hash&quot;))return t[e]}();if(t&amp;&amp;t.previousSibling){var e,r,n,i,c=t.previousSibling,a=c.getAttribute(&quot;data-cfemail&quot;);if(a){for(e=&quot;&quot;,r=parseInt(a.substr(0,2),16),n=2;a.length-n;n+=2)i=parseInt(a.substr(n,2),16)^r,e+=String.fromCharCode(i);e=document.createTextNode(e),c.parentNode.replaceChild(e,c)}}}catch(u){}}();/* ]]&gt; */&lt;/script&gt;\nFormat settings, CABAC: Yes\nFormat settings, ReFrames: 5 frames\nCodec ID: V_MPEG4/ISO/AVC\nDuration: 1h 28mn\nBit rate: 4 636 Kbps\nWidth: 1 280 pixels\nHeight: 696 pixels\nDisplay aspect ratio: 1.85:1\nFrame rate mode: Constant\nFrame rate: 24.000 fps\nColor space: YUV\nChroma subsampling: 4:2:0\nBit depth: 8 bits\nScan type: Progressive\nBits/(Pixel*Frame): 0.217\nStream size: 2.81 GiB (86%)\nWriting library: x264 core 122 r2184 5c85e0a\nEncoding settings: cabac=1 // deblock=1:0:0 / analyse=0x3:0x113 / me=umh / subme=8 / psy=1 / psy_rd=1.00:0.00 // me_range=16 / chroma_me=1 / trellis=1 / 8x8dct=1 / cqm=0 / deadzone=21,11 / fast_pskip=1 / chroma_qp_offset=-2 / threads=6 / sliced_threads=0 / nr=0 / decimate=1 / interlaced=0 / bluray_compat=0 / constrained_intra=0 / bframes=3 / b_pyramid=2 / b_adapt=2 / b_bias=0 / direct=3 / weightb=1 / open_gop=0 / weightp=2 / keyint=240 / keyint_min=24 / scenecut=40 / intra_refresh=0 / rc_lookahead=50 / rc=2pass / mbtree=1 / bitrate=4636 / ratetol=1.0 / qcomp=0.60 / qpmin=0 / qpmax=69 / qpstep=4 / cplxblur=20.0 / qblur=0.5 / ip_ratio=1.40 / aq=1:1.00\nLanguage: English\nDefault: Yes\nForced: No\n\nAudio\nID: 2\nFormat: AC-3\nFormat/Info: Audio Coding 3\nMode extension: CM (complete main)\nFormat settings, Endianness: Big\nCodec ID: A_AC3\nDuration: 1h 28mn\nBit rate mode: Constant\nBit rate: 640 Kbps\nChannel count: 6 channels\nOriginal Channel count: 2 channels\nChannel positions: Front: L R\nSampling rate: 48.0 KHz\nBit depth: 16 bits\nCompression mode: Lossy\nStream size: 407 MiB (12%)\nLanguage: English\nDefault: Yes\nForced: No\n\nText #1\nID: 3\nFormat: UTF-8\nCodec ID: S_TEXT/UTF8\nCodec ID/Info: UTF-8 Plain Text\nTitle: Italiano\nLanguage: Italian\nDefault: Yes\nForced: No\n\nText #2\nID: 4\nFormat: UTF-8\nCodec ID: S_TEXT/UTF8\nCodec ID/Info: UTF-8 Plain Text\nTitle: English\nLanguage: English\nDefault: No\nForced: No\n\nText #3\nID: 5\nFormat: UTF-8\nCodec ID: S_TEXT/UTF8\nCodec ID/Info: UTF-8 Plain Text\nTitle: Francois\nLanguage: French\nDefault: No\nForced: No\n\nText #4\nID: 6\nFormat: UTF-8\nCodec ID: S_TEXT/UTF8\nCodec ID/Info: UTF-8 Plain Text\nTitle: Espanol\nLanguage: Spanish\nDefault: No\nForced: No\n\nText #5\nID: 7\nFormat: UTF-8\nCodec ID: S_TEXT/UTF8\nCodec ID/Info: UTF-8 Plain Text\nTitle: Brasilian\nLanguage: Portuguese\nDefault: No\nForced: No","torrent":{"xt":"urn:btih:e5875e7a5c7e433754c0ec641bb713495ddcc83d","amp;dn":"Eraserhead+-+La+Mente+Che+Cancella+%281977%29+-+720p+-+x264+-+ENG+su","amp;tr":["udp%3A%2F%2Ftracker.openbittorrent.com%3A80","udp%3A%2F%2Fopen.demonii.com%3A1337","udp%3A%2F%2Ftracker.coppersurfer.tk%3A6969","udp%3A%2F%2Fexodus.desync.com%3A6969"],"infoHash":"e5875e7a5c7e433754c0ec641bb713495ddcc83d","infoHashBuffer":{"type":"Buffer","data":[229,135,94,122,92,126,67,55,84,192,236,100,27,183,19,73,93,220,200,61]},"announce":[],"urlList":[]}}